<svg width="12" height="12" viewBox="0 0 12 12" fill="none" xmlns="http://www.w3.org/2000/svg">
<path d="M6 1V4.5L7 3.5" stroke="white" stroke-linecap="round" stroke-linejoin="round"/>
<path d="M6 4.5L5 3.5" stroke="white" stroke-linecap="round" stroke-linejoin="round"/>
<path d="M0.989746 6.5H3.19475C3.38475 6.5 3.55475 6.605 3.63975 6.775L4.22475 7.945C4.39475 8.285 4.73975 8.5 5.11975 8.5H6.88475C7.26475 8.5 7.60975 8.285 7.77975 7.945L8.36475 6.775C8.44975 6.605 8.62475 6.5 8.80975 6.5H10.9897" stroke="white" stroke-linecap="round" stroke-linejoin="round"/>
<path d="M3.5 2.06543C1.73 2.32543 1 3.36543 1 5.50043V7.50043C1 10.0004 2 11.0004 4.5 11.0004H7.5C10 11.0004 11 10.0004 11 7.50043V5.50043C11 3.36543 10.27 2.32543 8.5 2.06543" stroke="white" stroke-linecap="round" stroke-linejoin="round"/>
</svg>
