<svg width="20" height="20" viewBox="0 0 20 20" fill="none" xmlns="http://www.w3.org/2000/svg">
<path fill-rule="evenodd" clip-rule="evenodd" d="M8.90722 10.0004C8.90722 10.8529 8.21639 11.5437 7.36389 11.5437C6.51139 11.5437 5.82056 10.8529 5.82056 10.0004C5.82056 9.14786 6.51139 8.45703 7.36389 8.45703H7.36639C8.21806 8.45786 8.90722 9.1487 8.90722 10.0004Z" stroke="#FF8917" stroke-linecap="round" stroke-linejoin="round"/>
<path d="M8.90967 10H14.1747V11.5433" stroke="#FF8917" stroke-linecap="round" stroke-linejoin="round"/>
<path d="M11.8183 11.5433V10" stroke="#FF8917" stroke-linecap="round" stroke-linejoin="round"/>
<path fill-rule="evenodd" clip-rule="evenodd" d="M2.2915 10.0003C2.2915 4.21949 4.219 2.29199 9.99984 2.29199C15.7807 2.29199 17.7082 4.21949 17.7082 10.0003C17.7082 15.7812 15.7807 17.7087 9.99984 17.7087C4.219 17.7087 2.2915 15.7812 2.2915 10.0003Z" stroke="#FF8917" stroke-linecap="round" stroke-linejoin="round"/>
</svg>
