<svg width="33" height="33" viewBox="0 0 33 33" fill="none" xmlns="http://www.w3.org/2000/svg">
<path d="M22.9619 26.0986H10.0369C9.45942 26.0986 8.81317 25.6448 8.62067 25.0948L2.92817 9.17234C2.11692 6.88984 3.06567 6.18859 5.01817 7.59109L10.3807 11.4273C11.2744 12.0461 12.2919 11.7298 12.6769 10.7261L15.0969 4.27734C15.8669 2.21484 17.1457 2.21484 17.9157 4.27734L20.3357 10.7261C20.7207 11.7298 21.7382 12.0461 22.6182 11.4273L27.6507 7.83859C29.7957 6.29859 30.8269 7.08234 29.9469 9.57109L24.3919 25.1223C24.1857 25.6448 23.5394 26.0986 22.9619 26.0986Z" stroke="#858585" stroke-width="3" stroke-linecap="round" stroke-linejoin="round"/>
<path d="M8.93799 30.251H24.063" stroke="#858585" stroke-width="3" stroke-linecap="round" stroke-linejoin="round"/>
<path d="M13.063 19.249H19.938" stroke="#858585" stroke-width="3" stroke-linecap="round" stroke-linejoin="round"/>
</svg>
