<svg width="24" height="24" viewBox="0 0 24 24" fill="none" xmlns="http://www.w3.org/2000/svg">
<path d="M16.699 18.9804H7.29898C6.87898 18.9804 6.40898 18.6504 6.26898 18.2504L2.12898 6.67035C1.53898 5.01035 2.22898 4.50035 3.64898 5.52035L7.54898 8.31035C8.19898 8.76035 8.93898 8.53035 9.21898 7.80035L10.979 3.11035C11.539 1.61035 12.469 1.61035 13.029 3.11035L14.789 7.80035C15.069 8.53035 15.809 8.76035 16.449 8.31035L20.109 5.70035C21.669 4.58035 22.419 5.15035 21.779 6.96035L17.739 18.2704C17.589 18.6504 17.119 18.9804 16.699 18.9804Z" stroke="#FF8917" stroke-width="1.5" stroke-linecap="round" stroke-linejoin="round"/>
<path d="M6.49976 22H17.4998" stroke="#FF8917" stroke-width="1.5" stroke-linecap="round" stroke-linejoin="round"/>
<path d="M9.49976 14H14.4998" stroke="#FF8917" stroke-width="1.5" stroke-linecap="round" stroke-linejoin="round"/>
</svg>
