<svg width="16" height="16" viewBox="0 0 16 20" fill="none" xmlns="http://www.w3.org/2000/svg">
<path d="M11.1329 12.6542H4.86625C4.58625 12.6542 4.27292 12.4342 4.17958 12.1676L1.41958 4.44755C1.02625 3.34089 1.48625 3.00089 2.43292 3.68089L5.03292 5.54089C5.46625 5.84089 5.95958 5.68755 6.14625 5.20089L7.31958 2.07422C7.69292 1.07422 8.31292 1.07422 8.68625 2.07422L9.85958 5.20089C10.0462 5.68755 10.5396 5.84089 10.9663 5.54089L13.4062 3.80089C14.4462 3.05422 14.9462 3.43422 14.5196 4.64089L11.8262 12.1809C11.7262 12.4342 11.4129 12.6542 11.1329 12.6542Z" stroke="white" stroke-linecap="round" stroke-linejoin="round"/>
<path d="M4.33344 14.667H11.6668" stroke="white" stroke-linecap="round" stroke-linejoin="round"/>
<path d="M6.33344 9.33301H9.66677" stroke="white" stroke-linecap="round" stroke-linejoin="round"/>
</svg>
