<svg width="26" height="26" viewBox="0 0 26 26" fill="none" xmlns="http://www.w3.org/2000/svg">
<path d="M21 25C23.2091 25 25 23.2091 25 21C25 18.7909 23.2091 17 21 17C18.7909 17 17 18.7909 17 21C17 23.2091 18.7909 25 21 25Z" stroke="#389DE7" stroke-width="2" stroke-linecap="round" stroke-linejoin="round"/>
<path d="M9 15L17 19" stroke="#389DE7" stroke-width="2" stroke-linecap="round" stroke-linejoin="round"/>
<path d="M5 17C7.20914 17 9 15.2091 9 13C9 10.7909 7.20914 9 5 9C2.79086 9 1 10.7909 1 13C1 15.2091 2.79086 17 5 17Z" stroke="#389DE7" stroke-width="2" stroke-linecap="round" stroke-linejoin="round"/>
<path d="M17 7L9 11" stroke="#389DE7" stroke-width="2" stroke-linecap="round" stroke-linejoin="round"/>
<path d="M21 9C23.2091 9 25 7.20914 25 5C25 2.79086 23.2091 1 21 1C18.7909 1 17 2.79086 17 5C17 7.20914 18.7909 9 21 9Z" stroke="#389DE7" stroke-width="2" stroke-linecap="round" stroke-linejoin="round"/>
</svg>
